<svg width="222" height="222" xmlns="http://www.w3.org/2000/svg" xml:space="preserve" enable-background="new -4.092 0 222 222" version="1.1">
 <g>
  <title>background</title>
  <rect fill="none" id="canvas_background" height="224" width="224" y="-1" x="-1"/>
 </g>

 <g>
  <title>Layer 1</title>
  <path id="svg_1" d="m195.333,129.506c-0.446,0 -0.893,0 -1.488,-0.148c-6.399,-0.744 -11.013,-6.548 -10.269,-12.947l6.994,-57.891c0.447,-3.721 -1.785,-7.293 -5.208,-8.483l-47.176,-16.816c-6.103,-2.232 -9.228,-8.78 -7.144,-14.882c2.232,-6.102 8.78,-9.227 14.882,-7.144l47.176,16.816c13.989,4.911 22.472,18.603 20.687,33.336l-6.995,57.891c-0.595,5.804 -5.655,10.268 -11.459,10.268z" fill="#fc675f"/>
  <path id="svg_2" d="m104.851,222.222c-5.209,0 -10.417,-1.34 -15.329,-4.019l-61.016,-33.931c-8.781,-4.911 -14.733,-13.691 -15.924,-23.663l-12.352,-100.602c-1.786,-14.733 6.995,-28.723 20.983,-33.634l75.452,-25.746c6.102,-2.083 12.799,1.19 14.882,7.292c2.084,6.103 -1.19,12.799 -7.292,14.883l-75.452,25.745c-3.572,1.191 -5.804,4.763 -5.357,8.632l12.352,100.603c0.298,2.53 1.786,4.762 4.018,6.102l61.016,33.931c2.381,1.34 5.358,1.34 7.739,0l66.076,-36.163c2.232,-1.19 3.87,-3.571 4.167,-6.102c0.744,-6.399 6.549,-11.013 12.948,-10.269c6.398,0.744 11.012,6.548 10.269,12.947c-1.191,9.971 -7.293,18.9 -16.073,23.812l-66.076,36.163c-4.614,2.679 -9.823,4.019 -15.031,4.019z" fill="#14bafc"/>
  <text font-style="normal" transform="matrix(1.3860760668718635,0,0,1.149878458511775,13.524091806509643,15.18922498833656) " font-weight="bold" xml:space="preserve" text-anchor="start" font-family="Helvetica, Arial, sans-serif" font-size="122" id="svg_3" y="131.122929" x="25.518876" stroke-width="0" fill="#fc675f">Y</text>
 </g>
</svg>