<?xml version="1.0" encoding="utf-8"?>
<!-- Generator: Adobe Illustrator 16.0.0, SVG Export Plug-In . SVG Version: 6.00 Build 0)  -->
<!DOCTYPE svg PUBLIC "-//W3C//DTD SVG 1.1//EN" "http://www.w3.org/Graphics/SVG/1.1/DTD/svg11.dtd">
<svg version="1.1" id="图层_1" xmlns="http://www.w3.org/2000/svg" xmlns:xlink="http://www.w3.org/1999/xlink" x="0px" y="0px"
	 width="328.391px" height="87.349px" viewBox="0 -6.595 328.391 87.349" enable-background="new 0 -6.595 328.391 87.349"
	 xml:space="preserve">
<path fill="#0D1A26" d="M44.473,57.551h-8.332L8.754,15.188c-0.773-1.195-1.395-2.378-1.863-3.551H6.68
	c0.188,1.219,0.281,3.762,0.281,7.629v38.285H0V3.094h8.824l26.648,41.625c1.266,1.969,2.016,3.223,2.25,3.762h0.141
	c-0.234-1.547-0.352-4.194-0.352-7.944V3.094h6.961L44.473,57.551L44.473,57.551z"/>
<path fill="#0D1A26" d="M91.406,54.281c0,14.391-6.984,21.586-20.953,21.586c-4.829,0-9.023-0.902-12.586-2.707v-6.645
	c4.336,2.414,8.496,3.62,12.48,3.62c9.445,0,14.168-4.969,14.168-14.907v-4.112h-0.141c-2.953,4.897-7.36,7.348-13.219,7.348
	c-4.875,0-8.777-1.746-11.707-5.237c-2.93-3.492-4.395-8.121-4.395-13.888c0-6.632,1.617-11.888,4.852-15.768
	c3.234-3.879,7.546-5.818,12.938-5.818c5.18,0,9.023,2.063,11.531,6.188h0.141v-5.273h6.891V54.281z M84.516,34.418
	c0.023-3-0.984-5.578-3.023-7.734c-2.039-2.156-4.547-3.234-7.523-3.234c-3.75,0-6.668,1.377-8.754,4.131s-3.129,6.534-3.129,11.338
	c0,4.125,1.007,7.465,3.023,10.021c2.016,2.555,4.688,3.832,8.016,3.832c3.352,0,6.094-1.219,8.227-3.656
	c2.132-2.438,3.187-5.531,3.164-9.281L84.516,34.418L84.516,34.418z"/>
<text transform="matrix(0.95 0 0 1 119.6719 56.5508)" fill="#0D1A26" stroke="#0D1A26" stroke-miterlimit="10" font-family="'ArialMT'" font-size="73">Yunzai</text>
</svg>
